<?xml version="1.0" encoding="UTF-8"?>
<svg xmlns="http://www.w3.org/2000/svg" viewBox="0 0 1100 800">
  <!-- Background -->
  <rect width="1100" height="800" fill="#0F172A"/>
  
  <!-- Title -->
  <text x="550" y="40" text-anchor="middle" fill="#F8FAFC" font-family="Arial, sans-serif" font-size="26" font-weight="bold">
    Evolution of Label Assignment Algorithms (2015-2023)
  </text>
  <text x="550" y="65" text-anchor="middle" fill="#94A3B8" font-family="Arial, sans-serif" font-size="14">
    From Fixed IoU Thresholds to Task-Aligned Dynamic Assignment
  </text>
  
  <!-- Timeline Base -->
  <g transform="translate(50, 120)">
    <!-- Main timeline line -->
    <line x1="0" y1="50" x2="1000" y2="50" stroke="#334155" stroke-width="4" stroke-linecap="round"/>
    
    <!-- Year markers -->
    <g fill="#64748B" font-family="monospace" font-size="14">
      <text x="0" y="80" text-anchor="middle">2015</text>
      <text x="125" y="80" text-anchor="middle">2016</text>
      <text x="250" y="80" text-anchor="middle">2017</text>
      <text x="375" y="80" text-anchor="middle">2018</text>
      <text x="500" y="80" text-anchor="middle">2019</text>
      <text x="625" y="80" text-anchor="middle">2020</text>
      <text x="750" y="80" text-anchor="middle">2021</text>
      <text x="875" y="80" text-anchor="middle">2022</text>
      <text x="1000" y="80" text-anchor="middle">2023</text>
    </g>
    
    <!-- Year dots on timeline -->
    <g fill="#475569">
      <circle cx="0" cy="50" r="6"/>
      <circle cx="125" cy="50" r="6"/>
      <circle cx="250" cy="50" r="6"/>
      <circle cx="375" cy="50" r="6"/>
      <circle cx="500" cy="50" r="6"/>
      <circle cx="625" cy="50" r="6"/>
      <circle cx="750" cy="50" r="6"/>
      <circle cx="875" cy="50" r="6"/>
      <circle cx="1000" cy="50" r="6"/>
    </g>
  </g>
  
  <!-- Algorithm Cards -->
  
  <!-- 2015: Faster R-CNN -->
  <g transform="translate(30, 220)">
    <rect x="0" y="0" width="140" height="160" rx="8" fill="#1E293B" stroke="#EF4444" stroke-width="2"/>
    <circle cx="70" cy="-30" r="12" fill="#EF4444"/>
    <line x1="70" y1="-18" x2="70" y2="0" stroke="#EF4444" stroke-width="2"/>
    
    <text x="70" y="25" text-anchor="middle" fill="#F87171" font-family="Arial, sans-serif" font-size="12" font-weight="bold">Faster R-CNN</text>
    <text x="70" y="42" text-anchor="middle" fill="#64748B" font-family="monospace" font-size="9">NeurIPS 2015</text>
    
    <line x1="10" y1="52" x2="130" y2="52" stroke="#334155" stroke-width="1"/>
    
    <text x="70" y="70" text-anchor="middle" fill="#F8FAFC" font-family="Arial, sans-serif" font-size="10" font-weight="bold">Max IoU</text>
    
    <text x="15" y="90" fill="#94A3B8" font-family="Arial, sans-serif" font-size="9">- Fixed threshold</text>
    <text x="15" y="105" fill="#94A3B8" font-family="Arial, sans-serif" font-size="9">- IoU &gt; 0.5 = pos</text>
    <text x="15" y="120" fill="#94A3B8" font-family="Arial, sans-serif" font-size="9">- IoU &lt; 0.3 = neg</text>
    <text x="15" y="135" fill="#94A3B8" font-family="Arial, sans-serif" font-size="9">- Two-stage</text>
    
    <rect x="10" y="145" width="55" height="12" rx="2" fill="#7F1D1D"/>
    <text x="37" y="154" text-anchor="middle" fill="#FECACA" font-family="Arial, sans-serif" font-size="8">Static</text>
  </g>
  
  <!-- 2017: RetinaNet -->
  <g transform="translate(180, 220)">
    <rect x="0" y="0" width="140" height="160" rx="8" fill="#1E293B" stroke="#F59E0B" stroke-width="2"/>
    <circle cx="70" cy="-30" r="12" fill="#F59E0B"/>
    <line x1="70" y1="-18" x2="70" y2="0" stroke="#F59E0B" stroke-width="2"/>
    
    <text x="70" y="25" text-anchor="middle" fill="#FBBF24" font-family="Arial, sans-serif" font-size="12" font-weight="bold">RetinaNet</text>
    <text x="70" y="42" text-anchor="middle" fill="#64748B" font-family="monospace" font-size="9">ICCV 2017</text>
    
    <line x1="10" y1="52" x2="130" y2="52" stroke="#334155" stroke-width="1"/>
    
    <text x="70" y="70" text-anchor="middle" fill="#F8FAFC" font-family="Arial, sans-serif" font-size="10" font-weight="bold">Focal Loss</text>
    
    <text x="15" y="90" fill="#94A3B8" font-family="Arial, sans-serif" font-size="9">- Class imbalance</text>
    <text x="15" y="105" fill="#94A3B8" font-family="Arial, sans-serif" font-size="9">- (1-p)^g weight</text>
    <text x="15" y="120" fill="#94A3B8" font-family="Arial, sans-serif" font-size="9">- One-stage</text>
    <text x="15" y="135" fill="#94A3B8" font-family="Arial, sans-serif" font-size="9">- FPN backbone</text>
    
    <rect x="10" y="145" width="55" height="12" rx="2" fill="#78350F"/>
    <text x="37" y="154" text-anchor="middle" fill="#FDE68A" font-family="Arial, sans-serif" font-size="8">Static</text>
  </g>
  
  <!-- 2019: FCOS -->
  <g transform="translate(330, 220)">
    <rect x="0" y="0" width="140" height="160" rx="8" fill="#1E293B" stroke="#8B5CF6" stroke-width="2"/>
    <circle cx="70" cy="-30" r="12" fill="#8B5CF6"/>
    <line x1="70" y1="-18" x2="70" y2="0" stroke="#8B5CF6" stroke-width="2"/>
    
    <text x="70" y="25" text-anchor="middle" fill="#A78BFA" font-family="Arial, sans-serif" font-size="12" font-weight="bold">FCOS</text>
    <text x="70" y="42" text-anchor="middle" fill="#64748B" font-family="monospace" font-size="9">ICCV 2019</text>
    
    <line x1="10" y1="52" x2="130" y2="52" stroke="#334155" stroke-width="1"/>
    
    <text x="70" y="70" text-anchor="middle" fill="#F8FAFC" font-family="Arial, sans-serif" font-size="10" font-weight="bold">Center-ness</text>
    
    <text x="15" y="90" fill="#94A3B8" font-family="Arial, sans-serif" font-size="9">- Anchor-free</text>
    <text x="15" y="105" fill="#94A3B8" font-family="Arial, sans-serif" font-size="9">- All pts in GT</text>
    <text x="15" y="120" fill="#94A3B8" font-family="Arial, sans-serif" font-size="9">- Center weight</text>
    <text x="15" y="135" fill="#94A3B8" font-family="Arial, sans-serif" font-size="9">- Per-pixel pred</text>
    
    <rect x="10" y="145" width="55" height="12" rx="2" fill="#4C1D95"/>
    <text x="37" y="154" text-anchor="middle" fill="#DDD6FE" font-family="Arial, sans-serif" font-size="8">Static</text>
  </g>
  
  <!-- 2020: ATSS -->
  <g transform="translate(480, 220)">
    <rect x="0" y="0" width="140" height="160" rx="8" fill="#1E293B" stroke="#06B6D4" stroke-width="2"/>
    <circle cx="70" cy="-30" r="12" fill="#06B6D4"/>
    <line x1="70" y1="-18" x2="70" y2="0" stroke="#06B6D4" stroke-width="2"/>
    
    <text x="70" y="25" text-anchor="middle" fill="#22D3EE" font-family="Arial, sans-serif" font-size="12" font-weight="bold">ATSS</text>
    <text x="70" y="42" text-anchor="middle" fill="#64748B" font-family="monospace" font-size="9">CVPR 2020</text>
    
    <line x1="10" y1="52" x2="130" y2="52" stroke="#334155" stroke-width="1"/>
    
    <text x="70" y="70" text-anchor="middle" fill="#F8FAFC" font-family="Arial, sans-serif" font-size="10" font-weight="bold">Adaptive Thresh</text>
    
    <text x="15" y="90" fill="#94A3B8" font-family="Arial, sans-serif" font-size="9">- mean + std</text>
    <text x="15" y="105" fill="#94A3B8" font-family="Arial, sans-serif" font-size="9">- Per-GT threshold</text>
    <text x="15" y="120" fill="#94A3B8" font-family="Arial, sans-serif" font-size="9">- k-nearest</text>
    <text x="15" y="135" fill="#94A3B8" font-family="Arial, sans-serif" font-size="9">- IoU-only</text>
    
    <rect x="10" y="145" width="55" height="12" rx="2" fill="#164E63"/>
    <text x="37" y="154" text-anchor="middle" fill="#A5F3FC" font-family="Arial, sans-serif" font-size="8">Dynamic</text>
  </g>
  
  <!-- 2020: DETR -->
  <g transform="translate(630, 220)">
    <rect x="0" y="0" width="140" height="160" rx="8" fill="#1E293B" stroke="#3B82F6" stroke-width="2"/>
    <circle cx="70" cy="-30" r="12" fill="#3B82F6"/>
    <line x1="70" y1="-18" x2="70" y2="0" stroke="#3B82F6" stroke-width="2"/>
    
    <text x="70" y="25" text-anchor="middle" fill="#60A5FA" font-family="Arial, sans-serif" font-size="12" font-weight="bold">DETR</text>
    <text x="70" y="42" text-anchor="middle" fill="#64748B" font-family="monospace" font-size="9">ECCV 2020</text>
    
    <line x1="10" y1="52" x2="130" y2="52" stroke="#334155" stroke-width="1"/>
    
    <text x="70" y="70" text-anchor="middle" fill="#F8FAFC" font-family="Arial, sans-serif" font-size="10" font-weight="bold">Hungarian</text>
    
    <text x="15" y="90" fill="#94A3B8" font-family="Arial, sans-serif" font-size="9">- 1-to-1 matching</text>
    <text x="15" y="105" fill="#94A3B8" font-family="Arial, sans-serif" font-size="9">- No NMS</text>
    <text x="15" y="120" fill="#94A3B8" font-family="Arial, sans-serif" font-size="9">- Transformer</text>
    <text x="15" y="135" fill="#94A3B8" font-family="Arial, sans-serif" font-size="9">- Global optimal</text>
    
    <rect x="10" y="145" width="55" height="12" rx="2" fill="#1E3A8A"/>
    <text x="37" y="154" text-anchor="middle" fill="#BFDBFE" font-family="Arial, sans-serif" font-size="8">Global</text>
  </g>
  
  <!-- 2021: SimOTA -->
  <g transform="translate(780, 220)">
    <rect x="0" y="0" width="140" height="160" rx="8" fill="#1E293B" stroke="#EC4899" stroke-width="2"/>
    <circle cx="70" cy="-30" r="12" fill="#EC4899"/>
    <line x1="70" y1="-18" x2="70" y2="0" stroke="#EC4899" stroke-width="2"/>
    
    <text x="70" y="25" text-anchor="middle" fill="#F472B6" font-family="Arial, sans-serif" font-size="12" font-weight="bold">SimOTA</text>
    <text x="70" y="42" text-anchor="middle" fill="#64748B" font-family="monospace" font-size="9">YOLOX 2021</text>
    
    <line x1="10" y1="52" x2="130" y2="52" stroke="#334155" stroke-width="1"/>
    
    <text x="70" y="70" text-anchor="middle" fill="#F8FAFC" font-family="Arial, sans-serif" font-size="10" font-weight="bold">Cost-based</text>
    
    <text x="15" y="90" fill="#94A3B8" font-family="Arial, sans-serif" font-size="9">- cls + reg cost</text>
    <text x="15" y="105" fill="#94A3B8" font-family="Arial, sans-serif" font-size="9">- Dynamic k</text>
    <text x="15" y="120" fill="#94A3B8" font-family="Arial, sans-serif" font-size="9">- Center prior</text>
    <text x="15" y="135" fill="#94A3B8" font-family="Arial, sans-serif" font-size="9">- Simplified OTA</text>
    
    <rect x="10" y="145" width="55" height="12" rx="2" fill="#831843"/>
    <text x="37" y="154" text-anchor="middle" fill="#FBCFE8" font-family="Arial, sans-serif" font-size="8">Dynamic</text>
  </g>
  
  <!-- 2022-2023: TAL (YOLOv8) - Highlighted -->
  <g transform="translate(930, 220)">
    <rect x="0" y="0" width="140" height="160" rx="8" fill="#065F46" stroke="#10B981" stroke-width="3"/>
    <circle cx="70" cy="-30" r="14" fill="#10B981" stroke="#34D399" stroke-width="2"/>
    <line x1="70" y1="-16" x2="70" y2="0" stroke="#10B981" stroke-width="3"/>
    
    <text x="70" y="25" text-anchor="middle" fill="#34D399" font-family="Arial, sans-serif" font-size="12" font-weight="bold">TAL</text>
    <text x="70" y="42" text-anchor="middle" fill="#6EE7B7" font-family="monospace" font-size="9">YOLOv8 2023</text>
    
    <line x1="10" y1="52" x2="130" y2="52" stroke="#10B981" stroke-width="1"/>
    
    <text x="70" y="70" text-anchor="middle" fill="#F8FAFC" font-family="Arial, sans-serif" font-size="10" font-weight="bold">Task-Aligned</text>
    
    <text x="15" y="90" fill="#D1FAE5" font-family="Arial, sans-serif" font-size="9">- score^a x IoU^b</text>
    <text x="15" y="105" fill="#D1FAE5" font-family="Arial, sans-serif" font-size="9">- Fixed top-k</text>
    <text x="15" y="120" fill="#D1FAE5" font-family="Arial, sans-serif" font-size="9">- Soft labels</text>
    <text x="15" y="135" fill="#D1FAE5" font-family="Arial, sans-serif" font-size="9">- Fast + SOTA</text>
    
    <rect x="10" y="145" width="120" height="12" rx="2" fill="#047857"/>
    <text x="70" y="154" text-anchor="middle" fill="#ECFDF5" font-family="Arial, sans-serif" font-size="8" font-weight="bold">Best Balance</text>
  </g>
  
  <!-- Evolution Arrows and Labels -->
  <g transform="translate(50, 420)">
    <!-- Key innovations arrow -->
    <text x="500" y="0" text-anchor="middle" fill="#F8FAFC" font-family="Arial, sans-serif" font-size="16" font-weight="bold">
      Key Innovations Over Time
    </text>
    
    <!-- Innovation boxes -->
    <g transform="translate(0, 30)">
      <!-- Static to Dynamic -->
      <rect x="0" y="0" width="200" height="70" rx="6" fill="#1E293B" stroke="#EF4444" stroke-width="1"/>
      <text x="100" y="20" text-anchor="middle" fill="#F87171" font-family="Arial, sans-serif" font-size="11" font-weight="bold">2015-2019: Static</text>
      <text x="100" y="38" text-anchor="middle" fill="#94A3B8" font-family="Arial, sans-serif" font-size="9">Fixed IoU thresholds</text>
      <text x="100" y="52" text-anchor="middle" fill="#94A3B8" font-family="Arial, sans-serif" font-size="9">Same rule for all objects</text>
      <text x="100" y="65" text-anchor="middle" fill="#64748B" font-family="Arial, sans-serif" font-size="8">Faster R-CNN, RetinaNet, FCOS</text>
      
      <!-- Arrow -->
      <path d="M 210,35 L 250,35" stroke="#475569" stroke-width="2" marker-end="url(#arrowEvol)"/>
      <defs>
        <marker id="arrowEvol" markerWidth="10" markerHeight="7" refX="9" refY="3.5" orient="auto">
          <polygon points="0 0, 10 3.5, 0 7" fill="#475569"/>
        </marker>
      </defs>
      
      <!-- Adaptive -->
      <rect x="260" y="0" width="200" height="70" rx="6" fill="#1E293B" stroke="#06B6D4" stroke-width="1"/>
      <text x="360" y="20" text-anchor="middle" fill="#22D3EE" font-family="Arial, sans-serif" font-size="11" font-weight="bold">2020: Adaptive</text>
      <text x="360" y="38" text-anchor="middle" fill="#94A3B8" font-family="Arial, sans-serif" font-size="9">Dynamic thresholds</text>
      <text x="360" y="52" text-anchor="middle" fill="#94A3B8" font-family="Arial, sans-serif" font-size="9">Per-object adaptation</text>
      <text x="360" y="65" text-anchor="middle" fill="#64748B" font-family="Arial, sans-serif" font-size="8">ATSS, PAA, DETR</text>
      
      <!-- Arrow -->
      <path d="M 470,35 L 510,35" stroke="#475569" stroke-width="2" marker-end="url(#arrowEvol)"/>
      
      <!-- Cost-based -->
      <rect x="520" y="0" width="200" height="70" rx="6" fill="#1E293B" stroke="#EC4899" stroke-width="1"/>
      <text x="620" y="20" text-anchor="middle" fill="#F472B6" font-family="Arial, sans-serif" font-size="11" font-weight="bold">2021: Cost-based</text>
      <text x="620" y="38" text-anchor="middle" fill="#94A3B8" font-family="Arial, sans-serif" font-size="9">Cls + Loc combined</text>
      <text x="620" y="52" text-anchor="middle" fill="#94A3B8" font-family="Arial, sans-serif" font-size="9">Dynamic k selection</text>
      <text x="620" y="65" text-anchor="middle" fill="#64748B" font-family="Arial, sans-serif" font-size="8">OTA, SimOTA</text>
      
      <!-- Arrow -->
      <path d="M 730,35 L 770,35" stroke="#475569" stroke-width="2" marker-end="url(#arrowEvol)"/>
      
      <!-- Task-Aligned -->
      <rect x="780" y="0" width="200" height="70" rx="6" fill="#065F46" stroke="#10B981" stroke-width="2"/>
      <text x="880" y="20" text-anchor="middle" fill="#34D399" font-family="Arial, sans-serif" font-size="11" font-weight="bold">2022-23: Task-Aligned</text>
      <text x="880" y="38" text-anchor="middle" fill="#D1FAE5" font-family="Arial, sans-serif" font-size="9">Unified metric</text>
      <text x="880" y="52" text-anchor="middle" fill="#D1FAE5" font-family="Arial, sans-serif" font-size="9">Soft labels + Fast</text>
      <text x="880" y="65" text-anchor="middle" fill="#6EE7B7" font-family="Arial, sans-serif" font-size="8">TAL, YOLOv8, PP-YOLOE</text>
    </g>
  </g>
  
  <!-- Key Metrics Evolution -->
  <g transform="translate(50, 550)">
    <text x="500" y="0" text-anchor="middle" fill="#F8FAFC" font-family="Arial, sans-serif" font-size="16" font-weight="bold">
      Assignment Criteria Evolution
    </text>
    
    <g transform="translate(50, 25)">
      <!-- IoU Only -->
      <rect x="0" y="0" width="180" height="100" rx="6" fill="#1E293B" stroke="#334155"/>
      <text x="90" y="20" text-anchor="middle" fill="#EF4444" font-family="Arial, sans-serif" font-size="12" font-weight="bold">IoU Only</text>
      <rect x="20" y="35" width="140" height="8" rx="2" fill="#1F2937"/>
      <rect x="20" y="35" width="140" height="8" rx="2" fill="#3B82F6"/>
      <text x="90" y="60" text-anchor="middle" fill="#64748B" font-family="monospace" font-size="9">IoU = 100%</text>
      <text x="90" y="80" text-anchor="middle" fill="#94A3B8" font-family="Arial, sans-serif" font-size="9">Faster R-CNN, RetinaNet</text>
      <text x="90" y="92" text-anchor="middle" fill="#94A3B8" font-family="Arial, sans-serif" font-size="9">FCOS, ATSS</text>
      
      <!-- Plus sign -->
      <text x="200" y="55" fill="#475569" font-family="Arial, sans-serif" font-size="24">+</text>
      
      <!-- Cls Score Added -->
      <rect x="230" y="0" width="180" height="100" rx="6" fill="#1E293B" stroke="#334155"/>
      <text x="320" y="20" text-anchor="middle" fill="#EC4899" font-family="Arial, sans-serif" font-size="12" font-weight="bold">Cls + Loc</text>
      <rect x="250" y="35" width="140" height="8" rx="2" fill="#1F2937"/>
      <rect x="250" y="35" width="70" height="8" rx="2" fill="#10B981"/>
      <rect x="320" y="35" width="70" height="8" rx="2" fill="#3B82F6"/>
      <text x="285" y="60" fill="#6EE7B7" font-family="monospace" font-size="8">Cls</text>
      <text x="355" y="60" fill="#93C5FD" font-family="monospace" font-size="8">Loc</text>
      <text x="320" y="80" text-anchor="middle" fill="#94A3B8" font-family="Arial, sans-serif" font-size="9">DETR, OTA, SimOTA</text>
      <text x="320" y="92" text-anchor="middle" fill="#94A3B8" font-family="Arial, sans-serif" font-size="9">PAA</text>
      
      <!-- Equals sign -->
      <text x="430" y="55" fill="#475569" font-family="Arial, sans-serif" font-size="24">=</text>
      
      <!-- Unified Metric -->
      <rect x="460" y="0" width="220" height="100" rx="6" fill="#065F46" stroke="#10B981" stroke-width="2"/>
      <text x="570" y="20" text-anchor="middle" fill="#34D399" font-family="Arial, sans-serif" font-size="12" font-weight="bold">Unified Metric</text>
      <rect x="480" y="35" width="180" height="8" rx="2" fill="#1F2937"/>
      <rect x="480" y="35" width="54" height="8" rx="2" fill="#10B981"/>
      <rect x="534" y="35" width="126" height="8" rx="2" fill="#3B82F6"/>
      <text x="507" y="60" fill="#6EE7B7" font-family="monospace" font-size="8">s^0.5</text>
      <text x="597" y="60" fill="#93C5FD" font-family="monospace" font-size="8">IoU^6</text>
      <text x="570" y="80" text-anchor="middle" fill="#D1FAE5" font-family="Arial, sans-serif" font-size="10" font-weight="bold">TAL: score^a x IoU^b</text>
      <text x="570" y="92" text-anchor="middle" fill="#6EE7B7" font-family="Arial, sans-serif" font-size="9">YOLOv8, PP-YOLOE</text>
      
      <!-- Best badge -->
      <g transform="translate(700, 10)">
        <rect x="0" y="0" width="60" height="20" rx="10" fill="#10B981"/>
        <text x="30" y="14" text-anchor="middle" fill="white" font-family="Arial, sans-serif" font-size="9" font-weight="bold">BEST</text>
      </g>
    </g>
  </g>
  
  <!-- Footer: Key Insight -->
  <g transform="translate(50, 700)">
    <rect x="0" y="0" width="1000" height="80" rx="8" fill="#1E293B" stroke="#10B981" stroke-width="2"/>
    <text x="500" y="25" text-anchor="middle" fill="#34D399" font-family="Arial, sans-serif" font-size="14" font-weight="bold">
      Key Insight: The Evolution Toward Task-Aligned Assignment
    </text>
    <text x="500" y="48" text-anchor="middle" fill="#94A3B8" font-family="Arial, sans-serif" font-size="11">
      From fixed IoU thresholds (2015) to dynamic, quality-aware assignment (2023)
    </text>
    <text x="500" y="68" text-anchor="middle" fill="#64748B" font-family="Arial, sans-serif" font-size="10">
      TAL combines simplicity (fixed k=10) with effectiveness (score^0.5 x IoU^6) for state-of-the-art performance
    </text>
  </g>
</svg>

