<?xml version="1.0" encoding="UTF-8"?>
<svg xmlns="http://www.w3.org/2000/svg" viewBox="0 0 1200 1600">
  
  <defs>
    <linearGradient id="bg" x1="0%" y1="0%" x2="0%" y2="100%">
      <stop offset="0%" stop-color="#1a1a2e"/>
      <stop offset="100%" stop-color="#16213e"/>
    </linearGradient>
    <linearGradient id="accent" x1="0%" y1="0%" x2="100%" y2="0%">
      <stop offset="0%" stop-color="#e94560"/>
      <stop offset="100%" stop-color="#0f3460"/>
    </linearGradient>
    <linearGradient id="cyan" x1="0%" y1="0%" x2="100%" y2="100%">
      <stop offset="0%" stop-color="#00d9ff"/>
      <stop offset="100%" stop-color="#0099cc"/>
    </linearGradient>
    <linearGradient id="pink" x1="0%" y1="0%" x2="100%" y2="100%">
      <stop offset="0%" stop-color="#e94560"/>
      <stop offset="100%" stop-color="#c73659"/>
    </linearGradient>
    <linearGradient id="gold" x1="0%" y1="0%" x2="100%" y2="100%">
      <stop offset="0%" stop-color="#ffd700"/>
      <stop offset="100%" stop-color="#ffaa00"/>
    </linearGradient>
    <filter id="glow">
      <feGaussianBlur stdDeviation="3" result="blur"/>
      <feMerge><feMergeNode in="blur"/><feMergeNode in="SourceGraphic"/></feMerge>
    </filter>
  </defs>
  
  <!-- Background -->
  <rect width="1200" height="1600" fill="url(#bg)"/>
  
  <!-- Decorative line -->
  <rect x="50" y="0" width="8" height="1600" fill="url(#accent)"/>
  
  <!-- ===== HEADER ===== -->
  <rect x="80" y="40" width="1080" height="160" rx="16" fill="#0f3460"/>
  <rect x="80" y="40" width="8" height="160" fill="#e94560"/>
  
  <text x="120" y="110" font-family="Georgia, serif" font-size="56" font-weight="bold" fill="#fff">YOLOv8-RepNeXt</text>
  <text x="120" y="155" font-family="Arial, sans-serif" font-size="22" fill="#00d9ff" letter-spacing="2">REAL-TIME OBJECT DETECTION</text>
  <text x="120" y="185" font-family="Arial, sans-serif" font-size="14" fill="#888">PyTorch • Structural Reparameterization • arXiv:2406.16004</text>
  
  <!-- Stats badges -->
  <g transform="translate(850, 70)">
    <rect width="90" height="55" rx="8" fill="#e94560"/>
    <text x="45" y="30" text-anchor="middle" font-family="Arial" font-size="20" font-weight="bold" fill="#fff">2-3×</text>
    <text x="45" y="48" text-anchor="middle" font-family="Arial" font-size="12" fill="#ffd7dd">Faster</text>
  </g>
  <g transform="translate(960, 70)">
    <rect width="90" height="55" rx="8" fill="#00d9ff"/>
    <text x="45" y="30" text-anchor="middle" font-family="Arial" font-size="20" font-weight="bold" fill="#1a1a2e">6</text>
    <text x="45" y="48" text-anchor="middle" font-family="Arial" font-size="12" fill="#1a1a2e">Variants</text>
  </g>
  <g transform="translate(1070, 70)">
    <rect width="70" height="55" rx="8" fill="#ffd700"/>
    <text x="35" y="35" text-anchor="middle" font-family="Arial" font-size="24" fill="#1a1a2e">⭐</text>
  </g>
  
  <!-- ===== ARCHITECTURE ===== -->
  <text x="100" y="260" font-family="Georgia, serif" font-size="28" font-weight="bold" fill="#fff">Architecture</text>
  <rect x="100" y="275" width="120" height="4" fill="#e94560"/>
  
  <g transform="translate(100, 300)">
    <!-- Main flow boxes -->
    <rect x="0" y="0" width="200" height="100" rx="12" fill="#0f3460" stroke="#00d9ff" stroke-width="2"/>
    <text x="100" y="45" text-anchor="middle" font-family="Arial" font-size="18" font-weight="bold" fill="#00d9ff">BACKBONE</text>
    <text x="100" y="70" text-anchor="middle" font-family="Arial" font-size="13" fill="#aaa">RepNeXt Stages</text>
    <text x="100" y="90" text-anchor="middle" font-family="Arial" font-size="12" fill="#666">P3 • P4 • P5</text>
    
    <path d="M 210 50 L 260 50" stroke="#00d9ff" stroke-width="3" fill="none"/>
    <polygon points="255,42 255,58 270,50" fill="#00d9ff"/>
    
    <rect x="280" y="0" width="200" height="100" rx="12" fill="#0f3460" stroke="#e94560" stroke-width="2"/>
    <text x="380" y="45" text-anchor="middle" font-family="Arial" font-size="18" font-weight="bold" fill="#e94560">NECK</text>
    <text x="380" y="70" text-anchor="middle" font-family="Arial" font-size="13" fill="#aaa">FPN + PANet</text>
    <text x="380" y="90" text-anchor="middle" font-family="Arial" font-size="12" fill="#666">N3 • N4 • N5</text>
    
    <path d="M 490 50 L 540 50" stroke="#e94560" stroke-width="3" fill="none"/>
    <polygon points="535,42 535,58 550,50" fill="#e94560"/>
    
    <rect x="560" y="0" width="200" height="100" rx="12" fill="#0f3460" stroke="#ffd700" stroke-width="2"/>
    <text x="660" y="45" text-anchor="middle" font-family="Arial" font-size="18" font-weight="bold" fill="#ffd700">HEAD</text>
    <text x="660" y="70" text-anchor="middle" font-family="Arial" font-size="13" fill="#aaa">Decoupled + DFL</text>
    <text x="660" y="90" text-anchor="middle" font-family="Arial" font-size="12" fill="#666">Box • Class</text>
    
    <path d="M 770 50 L 820 50" stroke="#ffd700" stroke-width="3" fill="none"/>
    <polygon points="815,42 815,58 830,50" fill="#ffd700"/>
    
    <rect x="840" y="10" width="140" height="80" rx="12" fill="#00d9ff"/>
    <text x="910" y="55" text-anchor="middle" font-family="Arial" font-size="16" font-weight="bold" fill="#1a1a2e">OUTPUT</text>
    <text x="910" y="75" text-anchor="middle" font-family="Arial" font-size="12" fill="#0f3460">Detections</text>
  </g>
  
  <!-- ===== KEY INNOVATION ===== -->
  <text x="100" y="480" font-family="Georgia, serif" font-size="28" font-weight="bold" fill="#fff">Key Innovation</text>
  <rect x="100" y="495" width="160" height="4" fill="#e94560"/>
  
  <g transform="translate(100, 520)">
    <!-- Training box -->
    <rect x="0" y="0" width="470" height="280" rx="16" fill="#0f3460"/>
    <rect x="0" y="0" width="470" height="50" rx="16" fill="#e94560"/>
    <rect x="0" y="35" width="470" height="15" fill="#0f3460"/>
    <text x="235" y="35" text-anchor="middle" font-family="Arial" font-size="20" font-weight="bold" fill="#fff">TRAINING</text>
    
    <text x="235" y="85" text-anchor="middle" font-family="Arial" font-size="14" fill="#888">5 Parallel Branches</text>
    
    <rect x="30" y="105" width="410" height="30" rx="6" fill="#3b82f6"/>
    <text x="235" y="126" text-anchor="middle" font-family="Arial" font-size="14" fill="#fff">7×7 DWConv + BN</text>
    
    <rect x="30" y="145" width="410" height="30" rx="6" fill="#6366f1"/>
    <text x="235" y="166" text-anchor="middle" font-family="Arial" font-size="14" fill="#fff">5×5 DWConv + BN</text>
    
    <rect x="30" y="185" width="410" height="30" rx="6" fill="#8b5cf6"/>
    <text x="235" y="206" text-anchor="middle" font-family="Arial" font-size="14" fill="#fff">3×3 DWConv + BN</text>
    
    <rect x="30" y="225" width="195" height="30" rx="6" fill="#a855f7"/>
    <text x="127" y="246" text-anchor="middle" font-family="Arial" font-size="14" fill="#fff">1×1 Conv + BN</text>
    
    <rect x="245" y="225" width="195" height="30" rx="6" fill="#ec4899"/>
    <text x="342" y="246" text-anchor="middle" font-family="Arial" font-size="14" fill="#fff">Identity + BN</text>
  </g>
  
  <!-- Arrow -->
  <g transform="translate(580, 650)">
    <rect x="0" y="0" width="60" height="60" rx="30" fill="#00d9ff" filter="url(#glow)"/>
    <text x="30" y="42" text-anchor="middle" font-family="Arial" font-size="28" font-weight="bold" fill="#1a1a2e">→</text>
  </g>
  
  <g transform="translate(650, 520)">
    <!-- Inference box -->
    <rect x="0" y="0" width="470" height="280" rx="16" fill="#0f3460"/>
    <rect x="0" y="0" width="470" height="50" rx="16" fill="#00d9ff"/>
    <rect x="0" y="35" width="470" height="15" fill="#0f3460"/>
    <text x="235" y="35" text-anchor="middle" font-family="Arial" font-size="20" font-weight="bold" fill="#1a1a2e">INFERENCE</text>
    
    <text x="235" y="85" text-anchor="middle" font-family="Arial" font-size="14" fill="#888">Single Fused Conv</text>
    
    <rect x="60" y="110" width="350" height="100" rx="16" fill="#00d9ff" filter="url(#glow)"/>
    <text x="235" y="165" text-anchor="middle" font-family="Arial" font-size="28" font-weight="bold" fill="#1a1a2e">7×7 DWConv</text>
    <text x="235" y="195" text-anchor="middle" font-family="Arial" font-size="14" fill="#0f3460">Fused Weights</text>
    
    <text x="235" y="245" text-anchor="middle" font-family="Arial" font-size="16" font-weight="bold" fill="#00d9ff">✓ Same Accuracy</text>
    <text x="235" y="270" text-anchor="middle" font-family="Arial" font-size="16" font-weight="bold" fill="#00d9ff">✓ 2-3× Faster</text>
  </g>
  
  <!-- ===== MODEL VARIANTS ===== -->
  <text x="100" y="870" font-family="Georgia, serif" font-size="28" font-weight="bold" fill="#fff">Model Variants</text>
  <rect x="100" y="885" width="160" height="4" fill="#e94560"/>
  
  <g transform="translate(100, 910)">
    <rect x="0" y="0" width="1020" height="280" rx="16" fill="#0f3460"/>
    
    <!-- Header -->
    <rect x="0" y="0" width="1020" height="45" rx="16" fill="#1a1a2e"/>
    <rect x="0" y="30" width="1020" height="15" fill="#0f3460"/>
    <text x="80" y="30" text-anchor="middle" font-family="Arial" font-size="14" font-weight="bold" fill="#fff">Variant</text>
    <text x="220" y="30" text-anchor="middle" font-family="Arial" font-size="14" font-weight="bold" fill="#fff">Params</text>
    <text x="340" y="30" text-anchor="middle" font-family="Arial" font-size="14" font-weight="bold" fill="#fff">FLOPs</text>
    <text x="500" y="30" text-anchor="middle" font-family="Arial" font-size="14" font-weight="bold" fill="#fff">Speed</text>
    <text x="720" y="30" text-anchor="middle" font-family="Arial" font-size="14" font-weight="bold" fill="#fff">Best For</text>
    <text x="920" y="30" text-anchor="middle" font-family="Arial" font-size="14" font-weight="bold" fill="#fff">Channels</text>
    
    <!-- Rows -->
    <rect x="20" y="55" width="980" height="40" rx="6" fill="#16213e"/>
    <circle cx="45" cy="75" r="12" fill="#22c55e"/>
    <text x="80" y="81" text-anchor="middle" font-family="Arial" font-size="15" font-weight="bold" fill="#22c55e">nano</text>
    <text x="220" y="81" text-anchor="middle" font-family="Arial" font-size="14" fill="#aaa">~3M</text>
    <text x="340" y="81" text-anchor="middle" font-family="Arial" font-size="14" fill="#aaa">~8G</text>
    <text x="500" y="81" text-anchor="middle" font-family="Arial" font-size="14" fill="#22c55e">⚡⚡⚡ Fastest</text>
    <text x="720" y="81" text-anchor="middle" font-family="Arial" font-size="13" fill="#888">Mobile / Edge</text>
    <text x="920" y="81" text-anchor="middle" font-family="Arial" font-size="12" fill="#666">[16,32,64,128]</text>
    
    <rect x="20" y="100" width="980" height="40" rx="6" fill="#1a1a2e"/>
    <circle cx="45" cy="120" r="12" fill="#3b82f6"/>
    <text x="80" y="126" text-anchor="middle" font-family="Arial" font-size="15" font-weight="bold" fill="#3b82f6">small</text>
    <text x="220" y="126" text-anchor="middle" font-family="Arial" font-size="14" fill="#aaa">~11M</text>
    <text x="340" y="126" text-anchor="middle" font-family="Arial" font-size="14" fill="#aaa">~29G</text>
    <text x="500" y="126" text-anchor="middle" font-family="Arial" font-size="14" fill="#3b82f6">⚖️ Balanced</text>
    <text x="720" y="126" text-anchor="middle" font-family="Arial" font-size="13" fill="#888">General Use</text>
    <text x="920" y="126" text-anchor="middle" font-family="Arial" font-size="12" fill="#666">[32,64,128,256]</text>
    
    <rect x="20" y="145" width="980" height="40" rx="6" fill="#16213e"/>
    <circle cx="45" cy="165" r="12" fill="#8b5cf6"/>
    <text x="80" y="171" text-anchor="middle" font-family="Arial" font-size="15" font-weight="bold" fill="#8b5cf6">medium</text>
    <text x="220" y="171" text-anchor="middle" font-family="Arial" font-size="14" fill="#aaa">~26M</text>
    <text x="340" y="171" text-anchor="middle" font-family="Arial" font-size="14" fill="#aaa">~79G</text>
    <text x="500" y="171" text-anchor="middle" font-family="Arial" font-size="14" fill="#8b5cf6">🎯 Accurate</text>
    <text x="720" y="171" text-anchor="middle" font-family="Arial" font-size="13" fill="#888">Desktop GPU</text>
    <text x="920" y="171" text-anchor="middle" font-family="Arial" font-size="12" fill="#666">[48,96,192,384]</text>
    
    <rect x="20" y="190" width="980" height="40" rx="6" fill="#1a1a2e"/>
    <circle cx="45" cy="210" r="12" fill="#f97316"/>
    <text x="80" y="216" text-anchor="middle" font-family="Arial" font-size="15" font-weight="bold" fill="#f97316">large</text>
    <text x="220" y="216" text-anchor="middle" font-family="Arial" font-size="14" fill="#aaa">~44M</text>
    <text x="340" y="216" text-anchor="middle" font-family="Arial" font-size="14" fill="#aaa">~165G</text>
    <text x="500" y="216" text-anchor="middle" font-family="Arial" font-size="14" fill="#f97316">🎯🎯 High</text>
    <text x="720" y="216" text-anchor="middle" font-family="Arial" font-size="13" fill="#888">Server GPU</text>
    <text x="920" y="216" text-anchor="middle" font-family="Arial" font-size="12" fill="#666">[64,128,256,512]</text>
    
    <rect x="20" y="235" width="980" height="40" rx="6" fill="#16213e"/>
    <circle cx="45" cy="255" r="12" fill="#ef4444"/>
    <text x="80" y="261" text-anchor="middle" font-family="Arial" font-size="15" font-weight="bold" fill="#ef4444">xlarge</text>
    <text x="220" y="261" text-anchor="middle" font-family="Arial" font-size="14" fill="#aaa">~68M</text>
    <text x="340" y="261" text-anchor="middle" font-family="Arial" font-size="14" fill="#aaa">~258G</text>
    <text x="500" y="261" text-anchor="middle" font-family="Arial" font-size="14" fill="#ef4444">🏆 Best</text>
    <text x="720" y="261" text-anchor="middle" font-family="Arial" font-size="13" fill="#888">Data Center</text>
    <text x="920" y="261" text-anchor="middle" font-family="Arial" font-size="12" fill="#666">[80,160,320,640]</text>
  </g>
  
  <!-- ===== FEATURES ===== -->
  <text x="100" y="1270" font-family="Georgia, serif" font-size="28" font-weight="bold" fill="#fff">Features</text>
  <rect x="100" y="1285" width="100" height="4" fill="#e94560"/>
  
  <g transform="translate(100, 1310)">
    <rect x="0" y="0" width="240" height="120" rx="12" fill="#0f3460" stroke="#00d9ff" stroke-width="2"/>
    <text x="120" y="45" text-anchor="middle" font-family="Arial" font-size="28" fill="#00d9ff">🔄</text>
    <text x="120" y="75" text-anchor="middle" font-family="Arial" font-size="14" font-weight="bold" fill="#fff">RepNeXt</text>
    <text x="120" y="100" text-anchor="middle" font-family="Arial" font-size="12" fill="#888">Multi-branch → Single conv</text>
    
    <rect x="260" y="0" width="240" height="120" rx="12" fill="#0f3460" stroke="#e94560" stroke-width="2"/>
    <text x="380" y="45" text-anchor="middle" font-family="Arial" font-size="28" fill="#e94560">🎯</text>
    <text x="380" y="75" text-anchor="middle" font-family="Arial" font-size="14" font-weight="bold" fill="#fff">DFL Head</text>
    <text x="380" y="100" text-anchor="middle" font-family="Arial" font-size="12" fill="#888">Anchor-free detection</text>
    
    <rect x="520" y="0" width="240" height="120" rx="12" fill="#0f3460" stroke="#ffd700" stroke-width="2"/>
    <text x="640" y="45" text-anchor="middle" font-family="Arial" font-size="28" fill="#ffd700">⚡</text>
    <text x="640" y="75" text-anchor="middle" font-family="Arial" font-size="14" font-weight="bold" fill="#fff">Training</text>
    <text x="640" y="100" text-anchor="middle" font-family="Arial" font-size="12" fill="#888">Mosaic • MixUp • EMA</text>
    
    <rect x="780" y="0" width="240" height="120" rx="12" fill="#0f3460" stroke="#22c55e" stroke-width="2"/>
    <text x="900" y="45" text-anchor="middle" font-family="Arial" font-size="28" fill="#22c55e">📱</text>
    <text x="900" y="75" text-anchor="middle" font-family="Arial" font-size="14" font-weight="bold" fill="#fff">Deploy</text>
    <text x="900" y="100" text-anchor="middle" font-family="Arial" font-size="12" fill="#888">QAT • ONNX • TensorRT</text>
  </g>
  
  <!-- ===== QUICK START ===== -->
  <g transform="translate(100, 1460)">
    <rect x="0" y="0" width="1020" height="90" rx="12" fill="#16213e" stroke="#333" stroke-width="1"/>
    <text x="30" y="35" font-family="Consolas, monospace" font-size="14" fill="#888"># Quick Start</text>
    <text x="30" y="58" font-family="Consolas, monospace" font-size="14"><tspan fill="#e94560">from</tspan><tspan fill="#fff"> model </tspan><tspan fill="#e94560">import</tspan><tspan fill="#fff"> yolo_v8_n; model = yolo_v8_n(</tspan><tspan fill="#ffd700">80</tspan><tspan fill="#fff">); model.reparameterize()</tspan></text>
    <text x="30" y="78" font-family="Arial" font-size="12" fill="#666">github.com/Gaurav14cs17/YOLOV8-Pytorch • MIT License</text>
  </g>
  
  <!-- Footer line -->
  <rect x="50" y="1575" width="1100" height="2" fill="url(#accent)"/>
  
</svg>
