<?xml version="1.0" encoding="UTF-8"?>
<svg xmlns="http://www.w3.org/2000/svg" viewBox="0 0 1400 800">
  
  <defs>
    <!-- Gradients -->
    <linearGradient id="bgGrad" x1="0%" y1="0%" x2="100%" y2="100%">
      <stop offset="0%" style="stop-color:#0f172a"/>
      <stop offset="100%" style="stop-color:#1e293b"/>
    </linearGradient>
    
    <linearGradient id="backboneGrad" x1="0%" y1="0%" x2="0%" y2="100%">
      <stop offset="0%" style="stop-color:#06b6d4"/>
      <stop offset="100%" style="stop-color:#0891b2"/>
    </linearGradient>
    
    <linearGradient id="neckGrad" x1="0%" y1="0%" x2="0%" y2="100%">
      <stop offset="0%" style="stop-color:#8b5cf6"/>
      <stop offset="100%" style="stop-color:#7c3aed"/>
    </linearGradient>
    
    <linearGradient id="headGrad" x1="0%" y1="0%" x2="0%" y2="100%">
      <stop offset="0%" style="stop-color:#f97316"/>
      <stop offset="100%" style="stop-color:#ea580c"/>
    </linearGradient>
    
    <linearGradient id="stageGrad" x1="0%" y1="0%" x2="100%" y2="0%">
      <stop offset="0%" style="stop-color:#22d3ee"/>
      <stop offset="100%" style="stop-color:#06b6d4"/>
    </linearGradient>
    
    <linearGradient id="purpleGrad" x1="0%" y1="0%" x2="100%" y2="0%">
      <stop offset="0%" style="stop-color:#a78bfa"/>
      <stop offset="100%" style="stop-color:#8b5cf6"/>
    </linearGradient>
    
    <linearGradient id="orangeGrad" x1="0%" y1="0%" x2="100%" y2="0%">
      <stop offset="0%" style="stop-color:#fb923c"/>
      <stop offset="100%" style="stop-color:#f97316"/>
    </linearGradient>
    
    <!-- Shadow filter -->
    <filter id="shadow" x="-20%" y="-20%" width="140%" height="140%">
      <feDropShadow dx="0" dy="4" stdDeviation="6" flood-opacity="0.3"/>
    </filter>
    
    <filter id="glow" x="-50%" y="-50%" width="200%" height="200%">
      <feGaussianBlur stdDeviation="3" result="coloredBlur"/>
      <feMerge>
        <feMergeNode in="coloredBlur"/>
        <feMergeNode in="SourceGraphic"/>
      </feMerge>
    </filter>
  </defs>
  
  <!-- Dark background -->
  <rect width="1400" height="800" fill="url(#bgGrad)"/>
  
  <!-- Subtle grid pattern -->
  <pattern id="grid" width="40" height="40" patternUnits="userSpaceOnUse">
    <path d="M 40 0 L 0 0 0 40" fill="none" stroke="#334155" stroke-width="0.5" opacity="0.3"/>
  </pattern>
  <rect width="1400" height="800" fill="url(#grid)"/>
  
  <!-- Title -->
  <text x="700" y="45" text-anchor="middle" font-family="'Segoe UI', Tahoma, sans-serif" font-size="32" font-weight="700" fill="#f8fafc" letter-spacing="1">YOLOv8-RepNeXt</text>
  <text x="700" y="72" text-anchor="middle" font-family="'Segoe UI', Tahoma, sans-serif" font-size="14" fill="#94a3b8" letter-spacing="2">OBJECT DETECTION ARCHITECTURE</text>
  
  <!-- ==================== INPUT ==================== -->
  <g filter="url(#shadow)">
    <rect x="40" y="330" width="80" height="100" rx="12" fill="#10b981"/>
    <text x="80" y="370" text-anchor="middle" font-family="'Segoe UI', sans-serif" font-size="11" font-weight="600" fill="#fff">INPUT</text>
    <text x="80" y="390" text-anchor="middle" font-family="'Segoe UI', sans-serif" font-size="10" fill="#d1fae5">Image</text>
    <text x="80" y="415" text-anchor="middle" font-family="'Segoe UI', sans-serif" font-size="9" fill="#a7f3d0">640×640×3</text>
  </g>
  
  <!-- Arrow from Input -->
  <path d="M 120 380 L 150 380" stroke="#10b981" stroke-width="3" fill="none"/>
  <polygon points="148,374 148,386 160,380" fill="#10b981"/>
  
  <!-- ==================== BACKBONE SECTION ==================== -->
  <g filter="url(#shadow)">
    <rect x="165" y="100" width="280" height="600" rx="16" fill="#0f172a" stroke="#06b6d4" stroke-width="2"/>
    <rect x="165" y="100" width="280" height="50" rx="16" fill="url(#backboneGrad)"/>
    <rect x="165" y="134" width="280" height="16" fill="#0f172a"/>
  </g>
  <text x="305" y="132" text-anchor="middle" font-family="'Segoe UI', sans-serif" font-size="16" font-weight="700" fill="#fff">BACKBONE</text>
  <text x="305" y="175" text-anchor="middle" font-family="'Segoe UI', sans-serif" font-size="10" fill="#67e8f9">Feature Extraction</text>
  
  <!-- Backbone Stages -->
  <g filter="url(#shadow)">
    <rect x="190" y="195" width="230" height="42" rx="8" fill="#164e63"/>
    <text x="305" y="222" text-anchor="middle" font-family="'Segoe UI', sans-serif" font-size="11" font-weight="600" fill="#22d3ee">Stem: Conv 3×3 s=2</text>
  </g>
  
  <path d="M 305 237 L 305 255" stroke="#475569" stroke-width="2"/>
  
  <g filter="url(#shadow)">
    <rect x="190" y="260" width="230" height="55" rx="8" fill="url(#stageGrad)"/>
    <text x="305" y="285" text-anchor="middle" font-family="'Segoe UI', sans-serif" font-size="11" font-weight="600" fill="#fff">Stage 1: RepNeXt ×n</text>
    <text x="305" y="302" text-anchor="middle" font-family="'Segoe UI', sans-serif" font-size="9" fill="#cffafe">64 ch • Stride 4</text>
  </g>
  
  <path d="M 305 315 L 305 333" stroke="#475569" stroke-width="2"/>
  
  <g filter="url(#shadow)">
    <rect x="190" y="338" width="230" height="55" rx="8" fill="url(#stageGrad)"/>
    <text x="305" y="363" text-anchor="middle" font-family="'Segoe UI', sans-serif" font-size="11" font-weight="600" fill="#fff">Stage 2: RepNeXt ×n</text>
    <text x="305" y="380" text-anchor="middle" font-family="'Segoe UI', sans-serif" font-size="9" fill="#cffafe">128 ch • Stride 8</text>
    <circle cx="435" cy="365" r="14" fill="#22c55e" filter="url(#glow)"/>
    <text x="435" y="369" text-anchor="middle" font-family="'Segoe UI', sans-serif" font-size="10" font-weight="700" fill="#fff">P3</text>
  </g>
  
  <path d="M 305 393 L 305 411" stroke="#475569" stroke-width="2"/>
  
  <g filter="url(#shadow)">
    <rect x="190" y="416" width="230" height="55" rx="8" fill="url(#stageGrad)"/>
    <text x="305" y="441" text-anchor="middle" font-family="'Segoe UI', sans-serif" font-size="11" font-weight="600" fill="#fff">Stage 3: RepNeXt ×n</text>
    <text x="305" y="458" text-anchor="middle" font-family="'Segoe UI', sans-serif" font-size="9" fill="#cffafe">256 ch • Stride 16</text>
    <circle cx="435" cy="443" r="14" fill="#eab308" filter="url(#glow)"/>
    <text x="435" y="447" text-anchor="middle" font-family="'Segoe UI', sans-serif" font-size="10" font-weight="700" fill="#fff">P4</text>
  </g>
  
  <path d="M 305 471 L 305 489" stroke="#475569" stroke-width="2"/>
  
  <g filter="url(#shadow)">
    <rect x="190" y="494" width="230" height="55" rx="8" fill="url(#stageGrad)"/>
    <text x="305" y="519" text-anchor="middle" font-family="'Segoe UI', sans-serif" font-size="11" font-weight="600" fill="#fff">Stage 4: RepNeXt ×n</text>
    <text x="305" y="536" text-anchor="middle" font-family="'Segoe UI', sans-serif" font-size="9" fill="#cffafe">512 ch • Stride 32</text>
    <circle cx="435" cy="521" r="14" fill="#ef4444" filter="url(#glow)"/>
    <text x="435" y="525" text-anchor="middle" font-family="'Segoe UI', sans-serif" font-size="10" font-weight="700" fill="#fff">P5</text>
  </g>
  
  <path d="M 305 549 L 305 570" stroke="#475569" stroke-width="2"/>
  
  <g filter="url(#shadow)">
    <rect x="210" y="575" width="190" height="42" rx="8" fill="#7c3aed"/>
    <text x="305" y="602" text-anchor="middle" font-family="'Segoe UI', sans-serif" font-size="11" font-weight="600" fill="#fff">SPPF (k=5)</text>
  </g>
  
  <!-- ==================== NECK SECTION ==================== -->
  <g filter="url(#shadow)">
    <rect x="470" y="100" width="380" height="600" rx="16" fill="#0f172a" stroke="#8b5cf6" stroke-width="2"/>
    <rect x="470" y="100" width="380" height="50" rx="16" fill="url(#neckGrad)"/>
    <rect x="470" y="134" width="380" height="16" fill="#0f172a"/>
  </g>
  <text x="660" y="132" text-anchor="middle" font-family="'Segoe UI', sans-serif" font-size="16" font-weight="700" fill="#fff">NECK</text>
  <text x="660" y="175" text-anchor="middle" font-family="'Segoe UI', sans-serif" font-size="10" fill="#c4b5fd">FPN + PANet Feature Fusion</text>
  
  <!-- FPN Top-Down label -->
  <text x="550" y="205" text-anchor="middle" font-family="'Segoe UI', sans-serif" font-size="10" font-weight="600" fill="#a78bfa">TOP-DOWN ↓</text>
  
  <!-- PANet Bottom-Up label -->
  <text x="770" y="205" text-anchor="middle" font-family="'Segoe UI', sans-serif" font-size="10" font-weight="600" fill="#a78bfa">BOTTOM-UP ↑</text>
  
  <!-- Connection lines from Backbone to Neck -->
  <path d="M 449 521 Q 480 521 490 480 L 505 250" stroke="#ef4444" stroke-width="2.5" fill="none" stroke-dasharray="6,3"/>
  <path d="M 449 443 Q 475 443 490 400 L 505 345" stroke="#eab308" stroke-width="2.5" fill="none" stroke-dasharray="6,3"/>
  <path d="M 449 365 Q 475 365 490 400 L 505 440" stroke="#22c55e" stroke-width="2.5" fill="none" stroke-dasharray="6,3"/>
  
  <!-- Top-Down Pathway -->
  <g filter="url(#shadow)">
    <rect x="495" y="230" width="120" height="38" rx="6" fill="url(#purpleGrad)"/>
    <text x="555" y="254" text-anchor="middle" font-family="'Segoe UI', sans-serif" font-size="10" font-weight="600" fill="#fff">RepNeXt</text>
  </g>
  
  <path d="M 555 268 L 555 285" stroke="#475569" stroke-width="2"/>
  
  <rect x="520" y="288" width="70" height="24" rx="4" fill="#3b82f6"/>
  <text x="555" y="304" text-anchor="middle" font-family="'Segoe UI', sans-serif" font-size="9" font-weight="600" fill="#fff">Up 2×</text>
  
  <path d="M 555 312 L 555 325" stroke="#475569" stroke-width="2"/>
  
  <!-- Concat C1 -->
  <circle cx="555" cy="340" r="14" fill="#ec4899" filter="url(#glow)"/>
  <text x="555" y="345" text-anchor="middle" font-family="'Segoe UI', sans-serif" font-size="10" font-weight="700" fill="#fff">C</text>
  
  <g filter="url(#shadow)">
    <rect x="495" y="365" width="120" height="38" rx="6" fill="url(#purpleGrad)"/>
    <text x="555" y="389" text-anchor="middle" font-family="'Segoe UI', sans-serif" font-size="10" font-weight="600" fill="#fff">RepNeXt</text>
  </g>
  
  <path d="M 555 403 L 555 420" stroke="#475569" stroke-width="2"/>
  
  <rect x="520" y="423" width="70" height="24" rx="4" fill="#3b82f6"/>
  <text x="555" y="439" text-anchor="middle" font-family="'Segoe UI', sans-serif" font-size="9" font-weight="600" fill="#fff">Up 2×</text>
  
  <path d="M 555 447 L 555 460" stroke="#475569" stroke-width="2"/>
  
  <!-- Concat C2 -->
  <circle cx="555" cy="475" r="14" fill="#ec4899" filter="url(#glow)"/>
  <text x="555" y="480" text-anchor="middle" font-family="'Segoe UI', sans-serif" font-size="10" font-weight="700" fill="#fff">C</text>
  
  <g filter="url(#shadow)">
    <rect x="495" y="500" width="120" height="38" rx="6" fill="url(#purpleGrad)"/>
    <text x="555" y="524" text-anchor="middle" font-family="'Segoe UI', sans-serif" font-size="10" font-weight="600" fill="#fff">RepNeXt</text>
  </g>
  
  <!-- N3 Output -->
  <circle cx="555" cy="565" r="16" fill="#22c55e" filter="url(#glow)"/>
  <text x="555" y="570" text-anchor="middle" font-family="'Segoe UI', sans-serif" font-size="10" font-weight="700" fill="#fff">N3</text>
  <path d="M 555 538 L 555 549" stroke="#475569" stroke-width="2"/>
  
  <!-- Bottom-Up Pathway -->
  <path d="M 571 565 L 630 565" stroke="#22c55e" stroke-width="2"/>
  
  <rect x="633" y="553" width="55" height="24" rx="4" fill="#f59e0b"/>
  <text x="660" y="569" text-anchor="middle" font-family="'Segoe UI', sans-serif" font-size="9" font-weight="600" fill="#fff">Down</text>
  
  <path d="M 688 565 L 720 565 L 720 475 L 745 475" stroke="#475569" stroke-width="2"/>
  
  <!-- Connection from first RepNeXt block to bottom-up -->
  <path d="M 615 384 L 680 384 L 680 475" stroke="#475569" stroke-width="2" stroke-dasharray="4,2"/>
  
  <!-- Concat C3 -->
  <circle cx="760" cy="475" r="14" fill="#ec4899" filter="url(#glow)"/>
  <text x="760" y="480" text-anchor="middle" font-family="'Segoe UI', sans-serif" font-size="10" font-weight="700" fill="#fff">C</text>
  
  <path d="M 760 461 L 760 445" stroke="#475569" stroke-width="2"/>
  
  <g filter="url(#shadow)">
    <rect x="700" y="400" width="120" height="38" rx="6" fill="url(#purpleGrad)"/>
    <text x="760" y="424" text-anchor="middle" font-family="'Segoe UI', sans-serif" font-size="10" font-weight="600" fill="#fff">RepNeXt</text>
  </g>
  
  <!-- N4 Output -->
  <circle cx="760" cy="365" r="16" fill="#eab308" filter="url(#glow)"/>
  <text x="760" y="370" text-anchor="middle" font-family="'Segoe UI', sans-serif" font-size="10" font-weight="700" fill="#fff">N4</text>
  <path d="M 760 400 L 760 381" stroke="#475569" stroke-width="2"/>
  
  <path d="M 776 365 L 810 365" stroke="#eab308" stroke-width="2"/>
  
  <rect x="730" y="310" width="55" height="24" rx="4" fill="#f59e0b"/>
  <text x="757" y="326" text-anchor="middle" font-family="'Segoe UI', sans-serif" font-size="9" font-weight="600" fill="#fff">Down</text>
  
  <path d="M 757 310 L 757 290 L 790 290" stroke="#475569" stroke-width="2"/>
  
  <!-- Connection from P5 RepNeXt to bottom-up -->
  <path d="M 615 249 L 680 249 L 680 290 L 775 290" stroke="#475569" stroke-width="2" stroke-dasharray="4,2"/>
  
  <!-- Concat C4 -->
  <circle cx="805" cy="290" r="14" fill="#ec4899" filter="url(#glow)"/>
  <text x="805" y="295" text-anchor="middle" font-family="'Segoe UI', sans-serif" font-size="10" font-weight="700" fill="#fff">C</text>
  
  <path d="M 805 276 L 805 260" stroke="#475569" stroke-width="2"/>
  
  <g filter="url(#shadow)">
    <rect x="745" y="218" width="120" height="38" rx="6" fill="url(#purpleGrad)"/>
    <text x="805" y="242" text-anchor="middle" font-family="'Segoe UI', sans-serif" font-size="10" font-weight="600" fill="#fff">RepNeXt</text>
  </g>
  
  <!-- N5 Output -->
  <circle cx="805" cy="188" r="16" fill="#ef4444" filter="url(#glow)"/>
  <text x="805" y="193" text-anchor="middle" font-family="'Segoe UI', sans-serif" font-size="10" font-weight="700" fill="#fff">N5</text>
  <path d="M 805 218 L 805 204" stroke="#475569" stroke-width="2"/>
  
  <!-- ==================== HEAD SECTION ==================== -->
  <g filter="url(#shadow)">
    <rect x="875" y="100" width="500" height="600" rx="16" fill="#0f172a" stroke="#f97316" stroke-width="2"/>
    <rect x="875" y="100" width="500" height="50" rx="16" fill="url(#headGrad)"/>
    <rect x="875" y="134" width="500" height="16" fill="#0f172a"/>
  </g>
  <text x="1125" y="132" text-anchor="middle" font-family="'Segoe UI', sans-serif" font-size="16" font-weight="700" fill="#fff">DETECTION HEAD</text>
  <text x="1125" y="175" text-anchor="middle" font-family="'Segoe UI', sans-serif" font-size="10" fill="#fed7aa">Multi-Scale Detection with DFL</text>
  
  <!-- Connection from Neck to Head -->
  <path d="M 821 188 L 895 188" stroke="#ef4444" stroke-width="3" marker-end="url(#arrowRed)"/>
  <path d="M 776 365 L 850 365 L 850 390 L 895 390" stroke="#eab308" stroke-width="3"/>
  <path d="M 571 565 L 630 565 L 630 590 L 895 590" stroke="#22c55e" stroke-width="3"/>
  
  <defs>
    <marker id="arrowRed" markerWidth="8" markerHeight="8" refX="7" refY="4" orient="auto">
      <path d="M0,0 L0,8 L8,4 z" fill="#ef4444"/>
    </marker>
  </defs>
  
  <!-- P5 Detection Head (Large Objects) -->
  <g filter="url(#shadow)">
    <rect x="900" y="195" width="455" height="120" rx="10" fill="#1e293b" stroke="#ef4444" stroke-width="2"/>
    <text x="1127" y="220" text-anchor="middle" font-family="'Segoe UI', sans-serif" font-size="12" font-weight="700" fill="#fca5a5">P5 Detection • 20×20 • Large Objects</text>
    
    <rect x="920" y="235" width="200" height="32" rx="6" fill="#22c55e"/>
    <text x="1020" y="256" text-anchor="middle" font-family="'Segoe UI', sans-serif" font-size="10" font-weight="600" fill="#fff">Box: Conv→Conv→4×16</text>
    
    <rect x="1135" y="235" width="200" height="32" rx="6" fill="#3b82f6"/>
    <text x="1235" y="256" text-anchor="middle" font-family="'Segoe UI', sans-serif" font-size="10" font-weight="600" fill="#fff">Class: Conv→Conv→NC</text>
    
    <rect x="920" y="275" width="415" height="26" rx="5" fill="#ec4899"/>
    <text x="1127" y="293" text-anchor="middle" font-family="'Segoe UI', sans-serif" font-size="9" font-weight="600" fill="#fff">Distribution Focal Loss (DFL)</text>
  </g>
  
  <!-- P4 Detection Head (Medium Objects) -->
  <g filter="url(#shadow)">
    <rect x="900" y="340" width="455" height="120" rx="10" fill="#1e293b" stroke="#eab308" stroke-width="2"/>
    <text x="1127" y="365" text-anchor="middle" font-family="'Segoe UI', sans-serif" font-size="12" font-weight="700" fill="#fde047">P4 Detection • 40×40 • Medium Objects</text>
    
    <rect x="920" y="380" width="200" height="32" rx="6" fill="#22c55e"/>
    <text x="1020" y="401" text-anchor="middle" font-family="'Segoe UI', sans-serif" font-size="10" font-weight="600" fill="#fff">Box: Conv→Conv→4×16</text>
    
    <rect x="1135" y="380" width="200" height="32" rx="6" fill="#3b82f6"/>
    <text x="1235" y="401" text-anchor="middle" font-family="'Segoe UI', sans-serif" font-size="10" font-weight="600" fill="#fff">Class: Conv→Conv→NC</text>
    
    <rect x="920" y="420" width="415" height="26" rx="5" fill="#ec4899"/>
    <text x="1127" y="438" text-anchor="middle" font-family="'Segoe UI', sans-serif" font-size="9" font-weight="600" fill="#fff">Distribution Focal Loss (DFL)</text>
  </g>
  
  <!-- P3 Detection Head (Small Objects) -->
  <g filter="url(#shadow)">
    <rect x="900" y="540" width="455" height="120" rx="10" fill="#1e293b" stroke="#22c55e" stroke-width="2"/>
    <text x="1127" y="565" text-anchor="middle" font-family="'Segoe UI', sans-serif" font-size="12" font-weight="700" fill="#86efac">P3 Detection • 80×80 • Small Objects</text>
    
    <rect x="920" y="580" width="200" height="32" rx="6" fill="#22c55e"/>
    <text x="1020" y="601" text-anchor="middle" font-family="'Segoe UI', sans-serif" font-size="10" font-weight="600" fill="#fff">Box: Conv→Conv→4×16</text>
    
    <rect x="1135" y="580" width="200" height="32" rx="6" fill="#3b82f6"/>
    <text x="1235" y="601" text-anchor="middle" font-family="'Segoe UI', sans-serif" font-size="10" font-weight="600" fill="#fff">Class: Conv→Conv→NC</text>
    
    <rect x="920" y="620" width="415" height="26" rx="5" fill="#ec4899"/>
    <text x="1127" y="638" text-anchor="middle" font-family="'Segoe UI', sans-serif" font-size="9" font-weight="600" fill="#fff">Distribution Focal Loss (DFL)</text>
  </g>
  
  <!-- NMS Output -->
  <g filter="url(#shadow)">
    <rect x="1020" y="690" width="210" height="45" rx="10" fill="linear-gradient(90deg, #9333ea, #7c3aed)"/>
    <rect x="1020" y="690" width="210" height="45" rx="10" fill="#9333ea"/>
    <text x="1125" y="718" text-anchor="middle" font-family="'Segoe UI', sans-serif" font-size="12" font-weight="700" fill="#fff">NMS → Detections</text>
  </g>
  
  <!-- Arrows to NMS -->
  <path d="M 1127 315 L 1127 325 L 1080 325 L 1080 690" stroke="#ef4444" stroke-width="1.5" stroke-dasharray="4,2"/>
  <path d="M 1127 460 L 1127 470 L 1100 470 L 1100 690" stroke="#eab308" stroke-width="1.5" stroke-dasharray="4,2"/>
  <path d="M 1127 660 L 1127 690" stroke="#22c55e" stroke-width="1.5" stroke-dasharray="4,2"/>
  
  <!-- ==================== LEGEND ==================== -->
  <rect x="40" y="720" width="820" height="60" rx="10" fill="#1e293b" stroke="#475569" stroke-width="1"/>
  <text x="70" y="755" font-family="'Segoe UI', sans-serif" font-size="11" font-weight="700" fill="#f8fafc">LEGEND:</text>
  
  <rect x="140" y="740" width="20" height="16" rx="3" fill="#06b6d4"/>
  <text x="170" y="753" font-family="'Segoe UI', sans-serif" font-size="10" fill="#e2e8f0">RepNeXt</text>
  
  <rect x="235" y="740" width="20" height="16" rx="3" fill="#3b82f6"/>
  <text x="265" y="753" font-family="'Segoe UI', sans-serif" font-size="10" fill="#e2e8f0">Upsample</text>
  
  <rect x="340" y="740" width="20" height="16" rx="3" fill="#f59e0b"/>
  <text x="370" y="753" font-family="'Segoe UI', sans-serif" font-size="10" fill="#e2e8f0">Downsample</text>
  
  <rect x="460" y="740" width="20" height="16" rx="3" fill="#22c55e"/>
  <text x="490" y="753" font-family="'Segoe UI', sans-serif" font-size="10" fill="#e2e8f0">Box Branch</text>
  
  <rect x="575" y="740" width="20" height="16" rx="3" fill="#3b82f6"/>
  <text x="605" y="753" font-family="'Segoe UI', sans-serif" font-size="10" fill="#e2e8f0">Class Branch</text>
  
  <circle cx="700" cy="748" r="10" fill="#ec4899"/>
  <text x="700" y="752" text-anchor="middle" font-family="'Segoe UI', sans-serif" font-size="8" font-weight="700" fill="#fff">C</text>
  <text x="725" y="753" font-family="'Segoe UI', sans-serif" font-size="10" fill="#e2e8f0">Concat</text>
  
  <rect x="780" y="740" width="20" height="16" rx="3" fill="#7c3aed"/>
  <text x="810" y="753" font-family="'Segoe UI', sans-serif" font-size="10" fill="#e2e8f0">SPPF</text>
  
</svg>
